<mxfile host="app.diagrams.net" agent="Mozilla/5.0 (Windows NT 10.0; Win64; x64) AppleWebKit/537.36 (KHTML, like Gecko) Chrome/127.0.0.0 Safari/537.36" version="24.7.7">
  <diagram name="Halaman-1" id="RoWwhHXu08IC8iJnCEm0">
    <mxGraphModel dx="880" dy="426" grid="1" gridSize="10" guides="1" tooltips="1" connect="1" arrows="1" fold="1" page="1" pageScale="1" pageWidth="827" pageHeight="1169" math="0" shadow="0">
      <root>
        <mxCell id="0" />
        <mxCell id="1" parent="0" />
        <mxCell id="1VYzOXZbYCuGuA3opQZz-10" style="edgeStyle=orthogonalEdgeStyle;rounded=0;orthogonalLoop=1;jettySize=auto;html=1;entryX=0;entryY=0.5;entryDx=0;entryDy=0;" edge="1" parent="1" source="1VYzOXZbYCuGuA3opQZz-1" target="1VYzOXZbYCuGuA3opQZz-6">
          <mxGeometry relative="1" as="geometry" />
        </mxCell>
        <mxCell id="1VYzOXZbYCuGuA3opQZz-1" value="siswa&lt;div&gt;&lt;br&gt;&lt;/div&gt;" style="shape=umlActor;verticalLabelPosition=bottom;verticalAlign=top;html=1;outlineConnect=0;" vertex="1" parent="1">
          <mxGeometry x="70" y="185" width="80" height="150" as="geometry" />
        </mxCell>
        <mxCell id="1VYzOXZbYCuGuA3opQZz-2" value="" style="rounded=0;whiteSpace=wrap;html=1;" vertex="1" parent="1">
          <mxGeometry x="230" y="60" width="230" height="400" as="geometry" />
        </mxCell>
        <mxCell id="1VYzOXZbYCuGuA3opQZz-7" style="edgeStyle=orthogonalEdgeStyle;rounded=0;orthogonalLoop=1;jettySize=auto;html=1;entryX=1;entryY=0.5;entryDx=0;entryDy=0;" edge="1" parent="1" source="1VYzOXZbYCuGuA3opQZz-4" target="1VYzOXZbYCuGuA3opQZz-6">
          <mxGeometry relative="1" as="geometry" />
        </mxCell>
        <mxCell id="1VYzOXZbYCuGuA3opQZz-4" value="&lt;div&gt;wali kelas&lt;/div&gt;&lt;div&gt;&lt;br&gt;&lt;/div&gt;" style="shape=umlActor;verticalLabelPosition=bottom;verticalAlign=top;html=1;outlineConnect=0;" vertex="1" parent="1">
          <mxGeometry x="520" y="185" width="80" height="150" as="geometry" />
        </mxCell>
        <mxCell id="1VYzOXZbYCuGuA3opQZz-5" value="TABUNGAN" style="text;html=1;align=center;verticalAlign=middle;whiteSpace=wrap;rounded=0;" vertex="1" parent="1">
          <mxGeometry x="315" y="70" width="60" height="30" as="geometry" />
        </mxCell>
        <mxCell id="1VYzOXZbYCuGuA3opQZz-6" value="Login" style="ellipse;whiteSpace=wrap;html=1;" vertex="1" parent="1">
          <mxGeometry x="272.5" y="110" width="145" height="50" as="geometry" />
        </mxCell>
      </root>
    </mxGraphModel>
  </diagram>
</mxfile>
